<svg
  width="12"
  height="12"
  viewBox="0 0 12 12"
  fill="none"
  xmlns="http://www.w3.org/2000/svg"
>
  <path
    d="M5.99998 10.05L8.90998 11.891C9.44298 12.2285 10.095 11.73 9.95498 11.099L9.18348 7.636L11.7565 5.3025C12.2265 4.8775 11.974 4.07 11.357 4.019L7.97048 3.718L6.64498 0.445C6.59536 0.31402 6.50705 0.201242 6.3918 0.121655C6.27654 0.0420689 6.13979 -0.000556946 5.99973 -0.000556946C5.85966 -0.000556946 5.72292 0.0420689 5.60766 0.121655C5.4924 0.201242 5.4041 0.31402 5.35448 0.445L4.02948 3.71L0.642477 4.011C0.0259773 4.063 -0.226523 4.87 0.242977 5.295L2.81648 7.628L2.04548 11.091C1.90548 11.722 2.55698 12.221 3.09048 11.8835L5.99998 10.0495V10.05Z"
    fill="#FFC90C"
  />
</svg>
