<svg width="18" height="18" viewBox="0 0 18 18" fill="none" xmlns="http://www.w3.org/2000/svg">
<path d="M7.52246 14.0332C8.91992 14.0332 10.2295 13.6113 11.3193 12.8906L15.1689 16.749C15.4238 16.9951 15.749 17.1182 16.1006 17.1182C16.8301 17.1182 17.3662 16.5469 17.3662 15.8262C17.3662 15.4922 17.252 15.167 17.0059 14.9209L13.1826 11.0801C13.9736 9.95508 14.4395 8.59277 14.4395 7.11621C14.4395 3.31055 11.3281 0.199219 7.52246 0.199219C3.72559 0.199219 0.605469 3.31055 0.605469 7.11621C0.605469 10.9219 3.7168 14.0332 7.52246 14.0332ZM7.52246 12.1875C4.73633 12.1875 2.45117 9.90234 2.45117 7.11621C2.45117 4.33008 4.73633 2.04492 7.52246 2.04492C10.3086 2.04492 12.5938 4.33008 12.5938 7.11621C12.5938 9.90234 10.3086 12.1875 7.52246 12.1875Z" fill="#3C3C43" fill-opacity="0.6"/>
</svg>
